<svg version="1.1" xmlns="http://www.w3.org/2000/svg" viewBox="0 0 659.464346856211 236.4762180873326" width="659.464346856211" height="236.4762180873326">
  <!-- svg-source:excalidraw -->
  
  <defs>
    <style class="style-fonts">
      @font-face {
        font-family: "Virgil";
        src: url("https://excalidraw.com/Virgil.woff2");
      }
      @font-face {
        font-family: "Cascadia";
        src: url("https://excalidraw.com/Cascadia.woff2");
      }
      @font-face {
        font-family: "Assistant";
        src: url("https://excalidraw.com/Assistant-Regular.woff2");
      }
    </style>
    
  </defs>
  <g stroke-linecap="round"><g transform="translate(29.377971104213202 132) rotate(0 248.42886472207306 -23.666656494140625)"><path d="M0 0 C40.78 -7.89, 161.86 -46, 244.67 -47.33 C327.48 -48.67, 454.83 -14.56, 496.86 -8 M0 0 C40.78 -7.89, 161.86 -46, 244.67 -47.33 C327.48 -48.67, 454.83 -14.56, 496.86 -8" stroke="#1e1e1e" stroke-width="2" fill="none"></path></g></g><mask></mask><g stroke-linecap="round" transform="translate(299.50225085477587 39.121852515722146) rotate(8.546951608921425 46.329517759767214 42.333343505859375)"><path d="M0 0 C34.05 0, 68.09 0, 92.66 0 M0 0 C21.94 0, 43.88 0, 92.66 0 M92.66 0 C92.66 30.53, 92.66 61.06, 92.66 84.67 M92.66 0 C92.66 33.34, 92.66 66.69, 92.66 84.67 M92.66 84.67 C55.92 84.67, 19.19 84.67, 0 84.67 M92.66 84.67 C69.61 84.67, 46.55 84.67, 0 84.67 M0 84.67 C0 62.48, 0 40.29, 0 0 M0 84.67 C0 60.61, 0 36.55, 0 0" stroke="#1e1e1e" stroke-width="1" fill="none"></path></g><g transform="translate(203.75894383021762 34.27620064871651) rotate(0 5.859375 12)"><text x="0" y="19.3125" font-family="Cascadia, Segoe UI Emoji" font-size="20px" fill="#1e1e1e" text-anchor="start" style="white-space: pre;" direction="ltr" dominant-baseline="alphabetic">1</text></g><g transform="translate(215.28274754115512 156.99047328404015) rotate(0 5.859375 11.999999999999993)"><text x="0" y="19.3125" font-family="Cascadia, Segoe UI Emoji" font-size="20px" fill="#1e1e1e" text-anchor="start" style="white-space: pre;" direction="ltr" dominant-baseline="alphabetic">2</text></g><g stroke-linecap="round" transform="translate(196.52086312430242 34.85712541852679) rotate(0 13.190455851283446 14.238109284877229)"><path d="M26.38 14.24 C26.38 15.06, 26.31 15.9, 26.18 16.71 C26.05 17.52, 25.85 18.33, 25.59 19.11 C25.32 19.88, 25 20.64, 24.61 21.36 C24.23 22.07, 23.79 22.76, 23.29 23.39 C22.8 24.02, 22.25 24.62, 21.67 25.15 C21.08 25.67, 20.45 26.16, 19.79 26.57 C19.12 26.98, 18.42 27.34, 17.7 27.62 C16.98 27.9, 16.23 28.12, 15.48 28.26 C14.73 28.4, 13.95 28.48, 13.19 28.48 C12.43 28.48, 11.65 28.4, 10.9 28.26 C10.15 28.12, 9.4 27.9, 8.68 27.62 C7.96 27.34, 7.26 26.98, 6.6 26.57 C5.93 26.16, 5.3 25.67, 4.71 25.15 C4.13 24.62, 3.58 24.02, 3.09 23.39 C2.6 22.76, 2.15 22.07, 1.77 21.36 C1.39 20.64, 1.06 19.88, 0.8 19.11 C0.53 18.33, 0.33 17.52, 0.2 16.71 C0.07 15.9, 0 15.06, 0 14.24 C0 13.41, 0.07 12.58, 0.2 11.77 C0.33 10.95, 0.53 10.14, 0.8 9.37 C1.06 8.59, 1.39 7.83, 1.77 7.12 C2.15 6.41, 2.6 5.72, 3.09 5.09 C3.58 4.45, 4.13 3.86, 4.71 3.33 C5.3 2.8, 5.93 2.32, 6.6 1.91 C7.26 1.5, 7.96 1.14, 8.68 0.86 C9.4 0.58, 10.15 0.36, 10.9 0.22 C11.65 0.07, 12.43 0, 13.19 0 C13.95 0, 14.73 0.07, 15.48 0.22 C16.23 0.36, 16.98 0.58, 17.7 0.86 C18.42 1.14, 19.12 1.5, 19.79 1.91 C20.45 2.32, 21.08 2.8, 21.67 3.33 C22.25 3.86, 22.8 4.45, 23.29 5.09 C23.79 5.72, 24.23 6.41, 24.61 7.12 C25 7.83, 25.32 8.59, 25.59 9.37 C25.85 10.14, 26.05 10.95, 26.18 11.77 C26.31 12.58, 26.35 13.83, 26.38 14.24 C26.41 14.65, 26.41 13.83, 26.38 14.24" stroke="#1e1e1e" stroke-width="1" fill="none"></path></g><g stroke-linecap="round" transform="translate(208.85417610672425 156.8571164580078) rotate(0 12.47617013699778 14.238098385742184)"><path d="M24.95 14.24 C24.95 15.06, 24.89 15.9, 24.76 16.71 C24.64 17.52, 24.45 18.33, 24.2 19.11 C23.95 19.88, 23.64 20.64, 23.28 21.36 C22.92 22.07, 22.5 22.76, 22.03 23.39 C21.57 24.02, 21.05 24.62, 20.5 25.15 C19.94 25.67, 19.34 26.16, 18.71 26.57 C18.09 26.98, 17.42 27.34, 16.74 27.62 C16.06 27.9, 15.35 28.12, 14.64 28.26 C13.93 28.4, 13.2 28.48, 12.48 28.48 C11.75 28.48, 11.02 28.4, 10.31 28.26 C9.6 28.12, 8.89 27.9, 8.21 27.62 C7.53 27.34, 6.86 26.98, 6.24 26.57 C5.61 26.16, 5.01 25.67, 4.46 25.15 C3.9 24.62, 3.38 24.02, 2.92 23.39 C2.45 22.76, 2.03 22.07, 1.67 21.36 C1.31 20.64, 1 19.88, 0.75 19.11 C0.51 18.33, 0.31 17.52, 0.19 16.71 C0.06 15.9, 0 15.06, 0 14.24 C0 13.41, 0.06 12.58, 0.19 11.77 C0.31 10.95, 0.51 10.14, 0.75 9.37 C1 8.59, 1.31 7.83, 1.67 7.12 C2.03 6.41, 2.45 5.72, 2.92 5.09 C3.38 4.45, 3.9 3.86, 4.46 3.33 C5.01 2.8, 5.61 2.32, 6.24 1.91 C6.86 1.5, 7.53 1.14, 8.21 0.86 C8.89 0.58, 9.6 0.36, 10.31 0.22 C11.02 0.07, 11.75 0, 12.48 0 C13.2 0, 13.93 0.07, 14.64 0.22 C15.35 0.36, 16.06 0.58, 16.74 0.86 C17.42 1.14, 18.09 1.5, 18.71 1.91 C19.34 2.32, 19.94 2.8, 20.5 3.33 C21.05 3.86, 21.57 4.45, 22.03 5.09 C22.5 5.72, 22.92 6.41, 23.28 7.12 C23.64 7.83, 23.95 8.59, 24.2 9.37 C24.45 10.14, 24.64 10.95, 24.76 11.77 C24.89 12.58, 24.92 13.83, 24.95 14.24 C24.98 14.65, 24.98 13.83, 24.95 14.24" stroke="#1e1e1e" stroke-width="1" fill="none"></path></g><g transform="translate(297.1874891008649 15.5) rotate(0 4.44921875 9.2)"><text x="0" y="14.720312499999999" font-family="Helvetica, Segoe UI Emoji" font-size="16px" fill="#1e1e1e" text-anchor="start" style="white-space: pre;" direction="ltr" dominant-baseline="alphabetic">a</text></g><g transform="translate(282.5208631243024 116.66668701171875) rotate(0 4.44921875 9.200000000000003)"><text x="0" y="14.720312499999999" font-family="Helvetica, Segoe UI Emoji" font-size="16px" fill="#1e1e1e" text-anchor="start" style="white-space: pre;" direction="ltr" dominant-baseline="alphabetic">d</text></g><g transform="translate(400.71131896972656 33.04759434291296) rotate(0 4.44921875 9.2)"><text x="0" y="14.720312499999999" font-family="Helvetica, Segoe UI Emoji" font-size="16px" fill="#1e1e1e" text-anchor="start" style="white-space: pre;" direction="ltr" dominant-baseline="alphabetic">b</text></g><g transform="translate(388.04469299316406 128.3809073311942) rotate(0 4 9.200000000000003)"><text x="0" y="14.720312499999999" font-family="Helvetica, Segoe UI Emoji" font-size="16px" fill="#1e1e1e" text-anchor="start" style="white-space: pre;" direction="ltr" dominant-baseline="alphabetic">c</text></g><g transform="translate(323.94940839494984 159.0476335797991) rotate(0 11.12109375 9.200000000000003)"><text x="0" y="14.720312499999999" font-family="Helvetica, Segoe UI Emoji" font-size="16px" fill="#1e1e1e" text-anchor="start" style="white-space: pre;" direction="ltr" dominant-baseline="alphabetic">Δw</text></g><g transform="translate(428.0446319580078 85.04759434291296) rotate(0 9.79296875 9.200000000000003)"><text x="0" y="14.720312499999999" font-family="Helvetica, Segoe UI Emoji" font-size="16px" fill="#1e1e1e" text-anchor="start" style="white-space: pre;" direction="ltr" dominant-baseline="alphabetic">Δh</text></g><g stroke-linecap="round"><g transform="translate(98.5208326067243 107.33334350585938) rotate(0 13.666671752929688 -48.66667175292969)"><path d="M0 0 C6.79 -24.17, 13.57 -48.33, 27.33 -97.33 M0 0 C5.93 -21.1, 11.85 -42.2, 27.33 -97.33" stroke="#1e1e1e" stroke-width="1" fill="none"></path></g><g transform="translate(98.5208326067243 107.33334350585938) rotate(0 13.666671752929688 -48.66667175292969)"><path d="M27.33 -97.33 L29.76 -82.53 L17.55 -85.96 L27.33 -97.33" stroke="none" stroke-width="0" fill="#1e1e1e" fill-rule="evenodd"></path><path d="M27.33 -97.33 C27.94 -93.66, 28.54 -89.98, 29.76 -82.53 M27.33 -97.33 C27.86 -94.12, 28.39 -90.92, 29.76 -82.53 M29.76 -82.53 C25.34 -83.77, 20.92 -85.01, 17.55 -85.96 M29.76 -82.53 C26.88 -83.34, 23.99 -84.15, 17.55 -85.96 M17.55 -85.96 C19.93 -88.72, 22.3 -91.48, 27.33 -97.33 M17.55 -85.96 C20.66 -89.57, 23.76 -93.17, 27.33 -97.33 M27.33 -97.33 C27.33 -97.33, 27.33 -97.33, 27.33 -97.33 M27.33 -97.33 C27.33 -97.33, 27.33 -97.33, 27.33 -97.33" stroke="#1e1e1e" stroke-width="1" fill="none"></path></g></g><mask></mask><g stroke-linecap="round"><g transform="translate(66.85416085379461 222.66664123535156) rotate(0 12.71429443359375 -43.904774257114966)"><path d="M0 0 C10.03 -34.62, 20.05 -69.25, 25.43 -87.81 M0 0 C9.41 -32.48, 18.81 -64.97, 25.43 -87.81" stroke="#1e1e1e" stroke-width="1" fill="none"></path></g><g transform="translate(66.85416085379461 222.66664123535156) rotate(0 12.71429443359375 -43.904774257114966)"><path d="M25.43 -87.81 L27.74 -72.99 L15.56 -76.51 L25.43 -87.81" stroke="none" stroke-width="0" fill="#1e1e1e" fill-rule="evenodd"></path><path d="M25.43 -87.81 C26.34 -81.97, 27.25 -76.12, 27.74 -72.99 M25.43 -87.81 C26.28 -82.33, 27.14 -76.84, 27.74 -72.99 M27.74 -72.99 C23.6 -74.19, 19.46 -75.39, 15.56 -76.51 M27.74 -72.99 C22.94 -74.38, 18.14 -75.77, 15.56 -76.51 M15.56 -76.51 C19.48 -81, 23.39 -85.48, 25.43 -87.81 M15.56 -76.51 C18.83 -80.26, 22.11 -84.01, 25.43 -87.81 M25.43 -87.81 C25.43 -87.81, 25.43 -87.81, 25.43 -87.81 M25.43 -87.81 C25.43 -87.81, 25.43 -87.81, 25.43 -87.81" stroke="#1e1e1e" stroke-width="1" fill="none"></path></g></g><mask></mask><g stroke-linecap="round"><g transform="translate(36.52080208914623 148.00003051757812) rotate(0 27.66668701171872 -8.333343505859375)"><path d="M0 0 C16.6 -5, 33.21 -10, 55.33 -16.67 M0 0 C21.05 -6.34, 42.1 -12.68, 55.33 -16.67" stroke="#1e1e1e" stroke-width="1" fill="none"></path></g><g transform="translate(36.52080208914623 148.00003051757812) rotate(0 27.66668701171872 -8.333343505859375)"><path d="M55.33 -16.67 L44.14 -6.68 L40.49 -18.82 L55.33 -16.67" stroke="none" stroke-width="0" fill="#1e1e1e" fill-rule="evenodd"></path><path d="M55.33 -16.67 C51.98 -13.67, 48.62 -10.67, 44.14 -6.68 M55.33 -16.67 C51.08 -12.87, 46.82 -9.07, 44.14 -6.68 M44.14 -6.68 C42.79 -11.18, 41.43 -15.67, 40.49 -18.82 M44.14 -6.68 C43.18 -9.88, 42.21 -13.09, 40.49 -18.82 M40.49 -18.82 C44.8 -18.19, 49.1 -17.57, 55.33 -16.67 M40.49 -18.82 C46.39 -17.96, 52.3 -17.11, 55.33 -16.67 M55.33 -16.67 C55.33 -16.67, 55.33 -16.67, 55.33 -16.67 M55.33 -16.67 C55.33 -16.67, 55.33 -16.67, 55.33 -16.67" stroke="#1e1e1e" stroke-width="1" fill="none"></path></g></g><mask></mask><g stroke-linecap="round"><g transform="translate(286.5208631243024 151.33334350585938) rotate(0 47.571432931082654 7.047613961356035)"><path d="M0 0 C27.4 4.06, 54.8 8.12, 95.14 14.1 M0 0 C31.06 4.6, 62.13 9.2, 95.14 14.1" stroke="#1e1e1e" stroke-width="1" fill="none"></path></g><g transform="translate(286.5208631243024 151.33334350585938) rotate(0 47.571432931082654 7.047613961356035)"><path d="M2.2 -14.84 C1.57 -10.56, 0.93 -6.29, 0 0 M2.2 -14.84 C1.48 -9.99, 0.76 -5.15, 0 0" stroke="#1e1e1e" stroke-width="1" fill="none"></path></g><g transform="translate(286.5208631243024 151.33334350585938) rotate(0 47.571432931082654 7.047613961356035)"><path d="M-2.2 14.84 C-1.57 10.56, -0.93 6.29, 0 0 M-2.2 14.84 C-1.48 9.99, -0.76 5.15, 0 0" stroke="#1e1e1e" stroke-width="1" fill="none"></path></g><g transform="translate(286.5208631243024 151.33334350585938) rotate(0 47.571432931082654 7.047613961356035)"><path d="M92.94 28.93 C93.58 24.66, 94.21 20.39, 95.14 14.1 M92.94 28.93 C93.66 24.09, 94.38 19.24, 95.14 14.1" stroke="#1e1e1e" stroke-width="1" fill="none"></path></g><g transform="translate(286.5208631243024 151.33334350585938) rotate(0 47.571432931082654 7.047613961356035)"><path d="M97.34 -0.74 C96.71 3.53, 96.07 7.8, 95.14 14.1 M97.34 -0.74 C96.62 4.1, 95.91 8.95, 95.14 14.1" stroke="#1e1e1e" stroke-width="1" fill="none"></path></g></g><mask></mask><g stroke-linecap="round"><g transform="translate(428.0446319580078 50.380937848772334) rotate(0 -6.33331298828125 43)"><path d="M0 0 C-4.09 27.78, -8.18 55.56, -12.67 86 M0 0 C-3.44 23.35, -6.88 46.7, -12.67 86" stroke="#1e1e1e" stroke-width="1" fill="none"></path></g><g transform="translate(428.0446319580078 50.380937848772334) rotate(0 -6.33331298828125 43)"><path d="M14.84 2.19 C10.05 1.48, 5.25 0.77, 0 0 M14.84 2.19 C10.81 1.59, 6.78 1, 0 0" stroke="#1e1e1e" stroke-width="1" fill="none"></path></g><g transform="translate(428.0446319580078 50.380937848772334) rotate(0 -6.33331298828125 43)"><path d="M-14.84 -2.19 C-10.05 -1.48, -5.25 -0.77, 0 0 M-14.84 -2.19 C-10.81 -1.59, -6.78 -1, 0 0" stroke="#1e1e1e" stroke-width="1" fill="none"></path></g><g transform="translate(428.0446319580078 50.380937848772334) rotate(0 -6.33331298828125 43)"><path d="M-27.51 83.81 C-22.71 84.52, -17.92 85.23, -12.67 86 M-27.51 83.81 C-23.48 84.41, -19.45 85, -12.67 86" stroke="#1e1e1e" stroke-width="1" fill="none"></path></g><g transform="translate(428.0446319580078 50.380937848772334) rotate(0 -6.33331298828125 43)"><path d="M2.17 88.19 C-2.62 87.48, -7.41 86.77, -12.67 86 M2.17 88.19 C-1.86 87.59, -5.89 87, -12.67 86" stroke="#1e1e1e" stroke-width="1" fill="none"></path></g></g><mask></mask><g stroke-linecap="round"><g transform="translate(64.90181841169084 226.4762180873326) rotate(0 -13.026800973074785 -36.37434814813126)"><path d="M0 0 C-7.48 -20.89, -14.96 -41.78, -26.05 -72.75 M0 0 C-9.79 -27.34, -19.58 -54.68, -26.05 -72.75" stroke="#1e1e1e" stroke-width="1" fill="none"></path></g><g transform="translate(64.90181841169084 226.4762180873326) rotate(0 -13.026800973074785 -36.37434814813126)"><path d="M-26.05 -72.75 L-15.5 -62.09 L-27.44 -57.81 L-26.05 -72.75" stroke="none" stroke-width="0" fill="#1e1e1e" fill-rule="evenodd"></path><path d="M-26.05 -72.75 C-23.02 -69.69, -19.99 -66.63, -15.5 -62.09 M-26.05 -72.75 C-22.09 -68.74, -18.12 -64.74, -15.5 -62.09 M-15.5 -62.09 C-20.22 -60.4, -24.94 -58.71, -27.44 -57.81 M-15.5 -62.09 C-19.99 -60.48, -24.47 -58.88, -27.44 -57.81 M-27.44 -57.81 C-27.1 -61.45, -26.76 -65.1, -26.05 -72.75 M-27.44 -57.81 C-27.09 -61.62, -26.73 -65.42, -26.05 -72.75 M-26.05 -72.75 C-26.05 -72.75, -26.05 -72.75, -26.05 -72.75 M-26.05 -72.75 C-26.05 -72.75, -26.05 -72.75, -26.05 -72.75" stroke="#1e1e1e" stroke-width="1" fill="none"></path></g></g><mask></mask><g stroke-linecap="round"><g transform="translate(98.52077157156805 109.00001525878906) rotate(0 27.66668701171875 -8.333343505859375)"><path d="M0 0 C19.7 -5.93, 39.4 -11.87, 55.33 -16.67 M0 0 C13.68 -4.12, 27.35 -8.24, 55.33 -16.67" stroke="#1e1e1e" stroke-width="1" fill="none"></path></g><g transform="translate(98.52077157156805 109.00001525878906) rotate(0 27.66668701171875 -8.333343505859375)"><path d="M55.33 -16.67 L44.14 -6.68 L40.49 -18.82 L55.33 -16.67" stroke="none" stroke-width="0" fill="#1e1e1e" fill-rule="evenodd"></path><path d="M55.33 -16.67 C51.35 -13.11, 47.37 -9.55, 44.14 -6.68 M55.33 -16.67 C52.57 -14.2, 49.8 -11.73, 44.14 -6.68 M44.14 -6.68 C42.79 -11.17, 41.44 -15.67, 40.49 -18.82 M44.14 -6.68 C43.07 -10.24, 42 -13.8, 40.49 -18.82 M40.49 -18.82 C43.87 -18.33, 47.25 -17.84, 55.33 -16.67 M40.49 -18.82 C44.31 -18.26, 48.13 -17.71, 55.33 -16.67 M55.33 -16.67 C55.33 -16.67, 55.33 -16.67, 55.33 -16.67 M55.33 -16.67 C55.33 -16.67, 55.33 -16.67, 55.33 -16.67" stroke="#1e1e1e" stroke-width="1" fill="none"></path></g></g><mask></mask><g stroke-linecap="round"><g transform="translate(154.52126204868864 86.3345807845404) rotate(0 -12.000015258789062 -35)"><path d="M0 0 C-6.82 -19.9, -13.64 -39.79, -24 -70 M0 0 C-9.16 -26.73, -18.33 -53.46, -24 -70" stroke="#1e1e1e" stroke-width="1" fill="none"></path></g><g transform="translate(154.52126204868864 86.3345807845404) rotate(0 -12.000015258789062 -35)"><path d="M-24 -70 L-13.59 -59.2 L-25.59 -55.08 L-24 -70" stroke="none" stroke-width="0" fill="#1e1e1e" fill-rule="evenodd"></path><path d="M-24 -70 C-21.04 -66.93, -18.08 -63.86, -13.59 -59.2 M-24 -70 C-20.03 -65.87, -16.05 -61.75, -13.59 -59.2 M-13.59 -59.2 C-16.86 -58.08, -20.13 -56.95, -25.59 -55.08 M-13.59 -59.2 C-17.44 -57.88, -21.28 -56.56, -25.59 -55.08 M-25.59 -55.08 C-25.2 -58.72, -24.81 -62.35, -24 -70 M-25.59 -55.08 C-25.21 -58.61, -24.84 -62.13, -24 -70 M-24 -70 C-24 -70, -24 -70, -24 -70 M-24 -70 C-24 -70, -24 -70, -24 -70" stroke="#1e1e1e" stroke-width="1" fill="none"></path></g></g><mask></mask><g transform="translate(83.85416303362166 165.79047328404016) rotate(0 5.859375 12)"><text x="0" y="19.3125" font-family="Cascadia, Segoe UI Emoji" font-size="20px" fill="#1e1e1e" text-anchor="start" style="white-space: pre;" direction="ltr" dominant-baseline="alphabetic">E</text></g><g transform="translate(88.69047982352112 44.76190185546876) rotate(0 5.859375 12)"><text x="0" y="19.3125" font-family="Cascadia, Segoe UI Emoji" font-size="20px" fill="#1e1e1e" text-anchor="start" style="white-space: pre;" direction="ltr" dominant-baseline="alphabetic">E</text></g><g transform="translate(93.8541630336216 176.30473720005574) rotate(0 4.6875 9.599999999999994)"><text x="0" y="15.45" font-family="Cascadia, Segoe UI Emoji" font-size="16px" fill="#1e1e1e" text-anchor="start" style="white-space: pre;" direction="ltr" dominant-baseline="alphabetic">2</text></g><g transform="translate(97.9761723109653 56.2095136369978) rotate(0 4.6875 9.600000000000001)"><text x="0" y="15.45" font-family="Cascadia, Segoe UI Emoji" font-size="16px" fill="#1e1e1e" text-anchor="start" style="white-space: pre;" direction="ltr" dominant-baseline="alphabetic">1</text></g><g transform="translate(150.00002179826993 39.771422031947544) rotate(0 5.859375 12)"><text x="0" y="19.3125" font-family="Cascadia, Segoe UI Emoji" font-size="20px" fill="#1e1e1e" text-anchor="start" style="white-space: pre;" direction="ltr" dominant-baseline="alphabetic">E</text></g><g transform="translate(159.285714285714 51.21903381347659) rotate(0 9.375 9.599999999999998)"><text x="0" y="15.45" font-family="Cascadia, Segoe UI Emoji" font-size="16px" fill="#1e1e1e" text-anchor="start" style="white-space: pre;" direction="ltr" dominant-baseline="alphabetic">1n</text></g><g transform="translate(133.09522356305808 105.48570774623323) rotate(0 5.859375 12)"><text x="0" y="19.3125" font-family="Cascadia, Segoe UI Emoji" font-size="20px" fill="#1e1e1e" text-anchor="start" style="white-space: pre;" direction="ltr" dominant-baseline="alphabetic">E</text></g><g transform="translate(142.38091605050215 116.93331952776228) rotate(0 9.375 9.600000000000001)"><text x="0" y="15.45" font-family="Cascadia, Segoe UI Emoji" font-size="16px" fill="#1e1e1e" text-anchor="start" style="white-space: pre;" direction="ltr" dominant-baseline="alphabetic">1t</text></g><g transform="translate(28.571428571428612 181.4381177629743) rotate(0 5.859375 12)"><text x="0" y="19.3125" font-family="Cascadia, Segoe UI Emoji" font-size="20px" fill="#1e1e1e" text-anchor="start" style="white-space: pre;" direction="ltr" dominant-baseline="alphabetic">E</text></g><g transform="translate(37.85712105887279 192.88572954450333) rotate(0 9.375 9.599999999999994)"><text x="0" y="15.45" font-family="Cascadia, Segoe UI Emoji" font-size="16px" fill="#1e1e1e" text-anchor="start" style="white-space: pre;" direction="ltr" dominant-baseline="alphabetic">2n</text></g><g transform="translate(10 127.15235988071983) rotate(0 5.859375 12)"><text x="0" y="19.3125" font-family="Cascadia, Segoe UI Emoji" font-size="20px" fill="#1e1e1e" text-anchor="start" style="white-space: pre;" direction="ltr" dominant-baseline="alphabetic">E</text></g><g transform="translate(19.28569248744418 138.5999716622489) rotate(0 9.375 9.600000000000001)"><text x="0" y="15.45" font-family="Cascadia, Segoe UI Emoji" font-size="16px" fill="#1e1e1e" text-anchor="start" style="white-space: pre;" direction="ltr" dominant-baseline="alphabetic">2t</text></g><g stroke-linecap="round" transform="translate(537.1242414721244 59.361487926497354) rotate(12.57360885795549 33.57145036969871 12.380948747907354)"><path d="M67.14 12.38 C67.14 13.1, 66.97 13.83, 66.63 14.53 C66.3 15.24, 65.78 15.94, 65.12 16.62 C64.45 17.29, 63.62 17.95, 62.65 18.57 C61.67 19.19, 60.54 19.79, 59.29 20.34 C58.04 20.89, 56.64 21.4, 55.15 21.87 C53.66 22.33, 52.04 22.74, 50.36 23.1 C48.67 23.46, 46.88 23.77, 45.05 24.02 C43.23 24.26, 41.31 24.45, 39.4 24.57 C37.49 24.7, 35.51 24.76, 33.57 24.76 C31.63 24.76, 29.66 24.7, 27.74 24.57 C25.83 24.45, 23.92 24.26, 22.09 24.02 C20.26 23.77, 18.47 23.46, 16.79 23.1 C15.1 22.74, 13.48 22.33, 11.99 21.87 C10.5 21.4, 9.1 20.89, 7.85 20.34 C6.61 19.79, 5.47 19.19, 4.5 18.57 C3.53 17.95, 2.69 17.29, 2.02 16.62 C1.36 15.94, 0.85 15.24, 0.51 14.53 C0.17 13.83, 0 13.1, 0 12.38 C0 11.66, 0.17 10.94, 0.51 10.23 C0.85 9.53, 1.36 8.82, 2.02 8.15 C2.69 7.47, 3.53 6.81, 4.5 6.19 C5.47 5.57, 6.61 4.97, 7.85 4.42 C9.1 3.87, 10.5 3.36, 11.99 2.9 C13.48 2.44, 15.1 2.02, 16.79 1.66 C18.47 1.3, 20.26 0.99, 22.09 0.75 C23.92 0.5, 25.83 0.31, 27.74 0.19 C29.66 0.06, 31.63 0, 33.57 0 C35.51 0, 37.49 0.06, 39.4 0.19 C41.31 0.31, 43.23 0.5, 45.05 0.75 C46.88 0.99, 48.67 1.3, 50.36 1.66 C52.04 2.02, 53.66 2.44, 55.15 2.9 C56.64 3.36, 58.04 3.87, 59.29 4.42 C60.54 4.97, 61.67 5.57, 62.65 6.19 C63.62 6.81, 64.45 7.47, 65.12 8.15 C65.78 8.82, 66.3 9.53, 66.63 10.23 C66.97 10.94, 67.06 12.02, 67.14 12.38 C67.23 12.74, 67.23 12.02, 67.14 12.38" stroke="#1e1e1e" stroke-width="1" fill="none"></path></g><g stroke-linecap="round" transform="translate(514.5990173577156 165.82058069068057) rotate(12.57360885795549 33.57145036969871 12.380948747907354)"><path d="M67.14 12.38 C67.14 13.1, 66.97 13.83, 66.63 14.53 C66.3 15.24, 65.78 15.94, 65.12 16.62 C64.45 17.29, 63.62 17.95, 62.65 18.57 C61.67 19.19, 60.54 19.79, 59.29 20.34 C58.04 20.89, 56.64 21.4, 55.15 21.87 C53.66 22.33, 52.04 22.74, 50.36 23.1 C48.67 23.46, 46.88 23.77, 45.05 24.02 C43.23 24.26, 41.31 24.45, 39.4 24.57 C37.49 24.7, 35.51 24.76, 33.57 24.76 C31.63 24.76, 29.66 24.7, 27.74 24.57 C25.83 24.45, 23.92 24.26, 22.09 24.02 C20.26 23.77, 18.47 23.46, 16.79 23.1 C15.1 22.74, 13.48 22.33, 11.99 21.87 C10.5 21.4, 9.1 20.89, 7.85 20.34 C6.61 19.79, 5.47 19.19, 4.5 18.57 C3.53 17.95, 2.69 17.29, 2.02 16.62 C1.36 15.94, 0.85 15.24, 0.51 14.53 C0.17 13.83, 0 13.1, 0 12.38 C0 11.66, 0.17 10.94, 0.51 10.23 C0.85 9.53, 1.36 8.82, 2.02 8.15 C2.69 7.47, 3.53 6.81, 4.5 6.19 C5.47 5.57, 6.61 4.97, 7.85 4.42 C9.1 3.87, 10.5 3.36, 11.99 2.9 C13.48 2.44, 15.1 2.02, 16.79 1.66 C18.47 1.3, 20.26 0.99, 22.09 0.75 C23.92 0.5, 25.83 0.31, 27.74 0.19 C29.66 0.06, 31.63 0, 33.57 0 C35.51 0, 37.49 0.06, 39.4 0.19 C41.31 0.31, 43.23 0.5, 45.05 0.75 C46.88 0.99, 48.67 1.3, 50.36 1.66 C52.04 2.02, 53.66 2.44, 55.15 2.9 C56.64 3.36, 58.04 3.87, 59.29 4.42 C60.54 4.97, 61.67 5.57, 62.65 6.19 C63.62 6.81, 64.45 7.47, 65.12 8.15 C65.78 8.82, 66.3 9.53, 66.63 10.23 C66.97 10.94, 67.06 12.02, 67.14 12.38 C67.23 12.74, 67.23 12.02, 67.14 12.38" stroke="#1e1e1e" stroke-width="1" fill="none"></path></g><g stroke-linecap="round"><g transform="translate(526.2615081125564 62.72498658338331) rotate(12.57360885795549 0.23810250418523538 54.04762268066404)"><path d="M0 0 C0.17 39.33, 0.35 78.65, 0.48 108.1 M0 0 C0.1 23.45, 0.21 46.89, 0.48 108.1" stroke="#1e1e1e" stroke-width="1" fill="none"></path></g></g><mask></mask><g stroke-linecap="round"><g transform="translate(592.800469764483 78.29785606899367) rotate(12.57360885795549 0.23810250418523538 54.047622680664034)"><path d="M0 0 C0.12 28.23, 0.25 56.46, 0.48 108.1 M0 0 C0.18 41.24, 0.36 82.49, 0.48 108.1" stroke="#1e1e1e" stroke-width="1" fill="none"></path></g></g><mask></mask><g stroke-linecap="round" transform="translate(525.0225395180413 119.90479387555803) rotate(12.57360885795549 33.57145036969871 12.380948747907354)"><path d="M67.14 12.38 C67.14 13.1, 66.97 13.83, 66.63 14.53 C66.3 15.24, 65.78 15.94, 65.12 16.62 C64.45 17.29, 63.62 17.95, 62.65 18.57 C61.67 19.19, 60.54 19.79, 59.29 20.34 C58.04 20.89, 56.64 21.4, 55.15 21.87 C53.66 22.33, 52.04 22.74, 50.36 23.1 C48.67 23.46, 46.88 23.77, 45.05 24.02 C43.23 24.26, 41.31 24.45, 39.4 24.57 C37.49 24.7, 35.51 24.76, 33.57 24.76 C31.63 24.76, 29.66 24.7, 27.74 24.57 C25.83 24.45, 23.92 24.26, 22.09 24.02 C20.26 23.77, 18.47 23.46, 16.79 23.1 C15.1 22.74, 13.48 22.33, 11.99 21.87 C10.5 21.4, 9.1 20.89, 7.85 20.34 C6.61 19.79, 5.47 19.19, 4.5 18.57 C3.53 17.95, 2.69 17.29, 2.02 16.62 C1.36 15.94, 0.85 15.24, 0.51 14.53 C0.17 13.83, 0 13.1, 0 12.38 C0 11.66, 0.17 10.94, 0.51 10.23 C0.85 9.53, 1.36 8.82, 2.02 8.15 C2.69 7.47, 3.53 6.81, 4.5 6.19 C5.47 5.57, 6.61 4.97, 7.85 4.42 C9.1 3.87, 10.5 3.36, 11.99 2.9 C13.48 2.44, 15.1 2.02, 16.79 1.66 C18.47 1.3, 20.26 0.99, 22.09 0.75 C23.92 0.5, 25.83 0.31, 27.74 0.19 C29.66 0.06, 31.63 0, 33.57 0 C35.51 0, 37.49 0.06, 39.4 0.19 C41.31 0.31, 43.23 0.5, 45.05 0.75 C46.88 0.99, 48.67 1.3, 50.36 1.66 C52.04 2.02, 53.66 2.44, 55.15 2.9 C56.64 3.36, 58.04 3.87, 59.29 4.42 C60.54 4.97, 61.67 5.57, 62.65 6.19 C63.62 6.81, 64.45 7.47, 65.12 8.15 C65.78 8.82, 66.3 9.53, 66.63 10.23 C66.97 10.94, 67.06 12.02, 67.14 12.38 C67.23 12.74, 67.23 12.02, 67.14 12.38" stroke="#1e1e1e" stroke-width="1.5" fill="none" stroke-dasharray="8 9"></path></g><g stroke-linecap="round"><g transform="translate(592.4035427616238 138.23810904366627) rotate(0 27.14287894112715 6.666673932756709)"><path d="M0 0 C20.68 5.08, 41.36 10.16, 54.29 13.33 M0 0 C18.66 4.58, 37.32 9.17, 54.29 13.33" stroke="#1e1e1e" stroke-width="2" fill="none"></path></g></g><mask></mask><g transform="translate(629.878409356211 119.9047655378069) rotate(0 9.79296875 9.200000000000003)"><text x="0" y="14.720312499999999" font-family="Helvetica, Segoe UI Emoji" font-size="16px" fill="#1e1e1e" text-anchor="start" style="white-space: pre;" direction="ltr" dominant-baseline="alphabetic">Δh</text></g><g stroke-linecap="round"><g transform="translate(631.3069807847821 84.28572082519528) rotate(0 -11.571393694196331 53.714285714285694)"><path d="M0 0 C-5.38 24.97, -10.76 49.95, -23.14 107.43 M0 0 C-8.52 39.55, -17.04 79.11, -23.14 107.43" stroke="#1e1e1e" stroke-width="1" fill="none"></path></g><g transform="translate(631.3069807847821 84.28572082519528) rotate(0 -11.571393694196331 53.714285714285694)"><path d="M14.66 3.16 C11.25 2.42, 7.85 1.69, 0 0 M14.66 3.16 C9.26 2, 3.87 0.83, 0 0" stroke="#1e1e1e" stroke-width="1" fill="none"></path></g><g transform="translate(631.3069807847821 84.28572082519528) rotate(0 -11.571393694196331 53.714285714285694)"><path d="M-14.66 -3.16 C-11.25 -2.42, -7.85 -1.69, 0 0 M-14.66 -3.16 C-9.26 -2, -3.87 -0.83, 0 0" stroke="#1e1e1e" stroke-width="1" fill="none"></path></g><g transform="translate(631.3069807847821 84.28572082519528) rotate(0 -11.571393694196331 53.714285714285694)"><path d="M-37.81 104.27 C-34.4 105, -30.99 105.74, -23.14 107.43 M-37.81 104.27 C-32.41 105.43, -27.01 106.6, -23.14 107.43" stroke="#1e1e1e" stroke-width="1" fill="none"></path></g><g transform="translate(631.3069807847821 84.28572082519528) rotate(0 -11.571393694196331 53.714285714285694)"><path d="M-8.48 110.59 C-11.89 109.85, -15.3 109.12, -23.14 107.43 M-8.48 110.59 C-13.88 109.42, -19.28 108.26, -23.14 107.43" stroke="#1e1e1e" stroke-width="1" fill="none"></path></g></g><mask></mask><g stroke-linecap="round"><g transform="translate(560.9749713330523 36.809537615094854) rotate(0 5.952388218471015 18.333336966378354)"><path d="M0 0 C4.56 14.05, 9.12 28.1, 11.9 36.67 M0 0 C2.52 7.77, 5.05 15.54, 11.9 36.67" stroke="#1e1e1e" stroke-width="1" fill="none"></path></g><g transform="translate(560.9749713330523 36.809537615094854) rotate(0 5.952388218471015 18.333336966378354)"><path d="M11.9 36.67 L1.68 25.69 L13.74 21.78 L11.9 36.67" stroke="none" stroke-width="0" fill="#1e1e1e" fill-rule="evenodd"></path><path d="M11.9 36.67 C7.99 32.46, 4.07 28.26, 1.68 25.69 M11.9 36.67 C9.74 34.34, 7.57 32.01, 1.68 25.69 M1.68 25.69 C5.96 24.3, 10.25 22.91, 13.74 21.78 M1.68 25.69 C4.89 24.65, 8.11 23.61, 13.74 21.78 M13.74 21.78 C13.26 25.65, 12.78 29.52, 11.9 36.67 M13.74 21.78 C13.33 25.05, 12.93 28.33, 11.9 36.67 M11.9 36.67 C11.9 36.67, 11.9 36.67, 11.9 36.67 M11.9 36.67 C11.9 36.67, 11.9 36.67, 11.9 36.67" stroke="#1e1e1e" stroke-width="1" fill="none"></path></g></g><mask></mask><g transform="translate(548.0688913595593 16.333354404994438) rotate(0 10.6796875 9.2)"><text x="0" y="14.720312499999999" font-family="Helvetica, Segoe UI Emoji" font-size="16px" fill="#1e1e1e" text-anchor="start" style="white-space: pre;" direction="ltr" dominant-baseline="alphabetic">ΔS</text></g></svg>