<svg version="1.1" xmlns="http://www.w3.org/2000/svg" viewBox="0 0 320.10241190592455 292.6666564941406" width="320.10241190592455" height="292.6666564941406" filter="invert(93%) hue-rotate(180deg)">
  <!-- svg-source:excalidraw -->
  
  <defs>
    <style class="style-fonts">
      @font-face {
        font-family: "Virgil";
        src: url("https://excalidraw.com/Virgil.woff2");
      }
      @font-face {
        font-family: "Cascadia";
        src: url("https://excalidraw.com/Cascadia.woff2");
      }
      @font-face {
        font-family: "Assistant";
        src: url("https://excalidraw.com/Assistant-Regular.woff2");
      }
    </style>
    
  </defs>
  <g stroke-linecap="round"><g transform="translate(43.888910929362055 10.666656494140625) rotate(0 0 136)"><path d="M0 0 C0 45.33, 0 226.67, 0 272 M0 0 C0 45.33, 0 226.67, 0 272" stroke="#1e1e1e" stroke-width="2" fill="none"></path></g></g><mask></mask><g stroke-linecap="round"><g transform="translate(33.77778625488281 132.33333333333337) rotate(0 -0.6888931274414176 -34.482052921549496)"><path d="M0 0 C-0.23 -11.49, -1.15 -57.47, -1.38 -68.96 M0 0 C-0.23 -11.49, -1.15 -57.47, -1.38 -68.96" stroke="#1e1e1e" stroke-width="1" fill="none"></path></g><g transform="translate(33.77778625488281 132.33333333333337) rotate(0 -0.6888931274414176 -34.482052921549496)"><path d="M-1.38 -68.96 L5.23 -55.5 L-7.44 -55.25 L-1.38 -68.96" stroke="none" stroke-width="0" fill="#1e1e1e" fill-rule="evenodd"></path><path d="M-1.38 -68.96 C0.77 -64.6, 2.91 -60.23, 5.23 -55.5 M-1.38 -68.96 C0.32 -65.5, 2.03 -62.03, 5.23 -55.5 M5.23 -55.5 C1.61 -55.43, -2.01 -55.35, -7.44 -55.25 M5.23 -55.5 C0.25 -55.4, -4.73 -55.3, -7.44 -55.25 M-7.44 -55.25 C-5.45 -59.76, -3.45 -64.27, -1.38 -68.96 M-7.44 -55.25 C-5.68 -59.24, -3.91 -63.24, -1.38 -68.96 M-1.38 -68.96 C-1.38 -68.96, -1.38 -68.96, -1.38 -68.96 M-1.38 -68.96 C-1.38 -68.96, -1.38 -68.96, -1.38 -68.96" stroke="#1e1e1e" stroke-width="1" fill="none"></path></g></g><mask></mask><g transform="translate(10 75.64442749023436) rotate(0 8.203125 16.799999999999997)"><text x="0" y="27.0375" font-family="Cascadia, Segoe UI Emoji" font-size="28px" fill="#1e1e1e" text-anchor="start" style="white-space: pre;" direction="ltr" dominant-baseline="alphabetic">I</text></g><g stroke-linecap="round"><g transform="translate(43.222223917643305 162) rotate(0 122.66665649414062 0)"><path d="M0 0 C40.89 0, 204.44 0, 245.33 0 M0 0 C40.89 0, 204.44 0, 245.33 0" stroke="#1e1e1e" stroke-width="1" fill="none"></path></g></g><mask></mask><g transform="translate(293.69616190592455 124.86665649414061) rotate(0 8.203125 16.80000000000001)"><text x="0" y="27.0375" font-family="Cascadia, Segoe UI Emoji" font-size="28px" fill="#1e1e1e" text-anchor="start" style="white-space: pre;" direction="ltr" dominant-baseline="alphabetic">P</text></g><g stroke-linecap="round"><g transform="translate(43.888910929362055 10) rotate(0 120.33331298828125 76)"><path d="M0 0 C40.11 25.33, 200.56 126.67, 240.67 152" stroke="#1e1e1e" stroke-width="1.5" fill="none" stroke-dasharray="8 9"></path></g></g><mask></mask><g stroke-linecap="round"><g transform="translate(43.888910929362055 282.6666564941406) rotate(0 122 -60.666656494140625)"><path d="M0 0 C40.67 -20.22, 203.33 -101.11, 244 -121.33" stroke="#1e1e1e" stroke-width="1.5" fill="none" stroke-dasharray="8 9"></path></g></g><mask></mask><g stroke-linecap="round"><g transform="translate(45.888910929362055 230.66665649414062) rotate(0 120.66665649414062 0)"><path d="M0 0 C40.22 0, 201.11 0, 241.33 0 M0 0 C40.22 0, 201.11 0, 241.33 0" stroke="#1e1e1e" stroke-width="1" fill="none"></path></g><g transform="translate(45.888910929362055 230.66665649414062) rotate(0 120.66665649414062 0)"><path d="M0 0 L13.59 -6.34 L13.59 6.34 L0 0" stroke="none" stroke-width="0" fill="#1e1e1e" fill-rule="evenodd"></path><path d="M0 0 C3.31 -1.54, 6.62 -3.09, 13.59 -6.34 M0 0 C4.62 -2.15, 9.23 -4.3, 13.59 -6.34 M13.59 -6.34 C13.59 -1.96, 13.59 2.41, 13.59 6.34 M13.59 -6.34 C13.59 -1.33, 13.59 3.67, 13.59 6.34 M13.59 6.34 C8.74 4.08, 3.88 1.81, 0 0 M13.59 6.34 C8.92 4.16, 4.24 1.98, 0 0 M0 0 C0 0, 0 0, 0 0 M0 0 C0 0, 0 0, 0 0" stroke="#1e1e1e" stroke-width="1" fill="none"></path></g><g transform="translate(45.888910929362055 230.66665649414062) rotate(0 120.66665649414062 0)"><path d="M241.33 0 L227.74 6.34 L227.74 -6.34 L241.33 0" stroke="none" stroke-width="0" fill="#1e1e1e" fill-rule="evenodd"></path><path d="M241.33 0 C238.03 1.54, 234.72 3.09, 227.74 6.34 M241.33 0 C236.72 2.15, 232.1 4.3, 227.74 6.34 M227.74 6.34 C227.74 1.96, 227.74 -2.41, 227.74 -6.34 M227.74 6.34 C227.74 1.33, 227.74 -3.67, 227.74 -6.34 M227.74 -6.34 C232.59 -4.08, 237.45 -1.81, 241.33 0 M227.74 -6.34 C232.42 -4.16, 237.09 -1.98, 241.33 0 M241.33 0 C241.33 0, 241.33 0, 241.33 0 M241.33 0 C241.33 0, 241.33 0, 241.33 0" stroke="#1e1e1e" stroke-width="1" fill="none"></path></g></g><mask></mask><g transform="translate(171.88891092936205 228.66665649414062) rotate(0 5.859375 12)"><text x="0" y="19.3125" font-family="Cascadia, Segoe UI Emoji" font-size="20px" fill="#1e1e1e" text-anchor="start" style="white-space: pre;" direction="ltr" dominant-baseline="alphabetic">ρ</text></g><g transform="translate(199.31743440173932 111.6761701311384) rotate(0 8.203125 16.80000000000001)"><text x="0" y="27.0375" font-family="Cascadia, Segoe UI Emoji" font-size="28px" fill="#1e1e1e" text-anchor="start" style="white-space: pre;" direction="ltr" dominant-baseline="alphabetic">α</text></g><g transform="translate(198.02950977143803 152.81900983537946) rotate(0 8.203125 16.80000000000001)"><text x="0" y="27.0375" font-family="Cascadia, Segoe UI Emoji" font-size="28px" fill="#1e1e1e" text-anchor="start" style="white-space: pre;" direction="ltr" dominant-baseline="alphabetic">α</text></g><g stroke-linecap="round"><g transform="translate(245.2222239176433 137.33334350585938) rotate(0 -3.333343505859375 11.666656494140625)"><path d="M0 0 C-0.9 1.6, -4.27 5.73, -5.38 9.62 C-6.49 13.51, -6.45 21.05, -6.67 23.33 M0 0 C-0.9 1.6, -4.27 5.73, -5.38 9.62 C-6.49 13.51, -6.45 21.05, -6.67 23.33" stroke="#1e1e1e" stroke-width="1" fill="none"></path></g></g><mask></mask><g stroke-linecap="round"><g transform="translate(227.22223263695128 162.42856488909047) rotate(0 3.928571428571445 12.857148306710371)"><path d="M0 0 C0.4 2.34, 1.07 9.76, 2.38 14.05 C3.69 18.33, 6.94 23.77, 7.86 25.71 M0 0 C0.4 2.34, 1.07 9.76, 2.38 14.05 C3.69 18.33, 6.94 23.77, 7.86 25.71" stroke="#1e1e1e" stroke-width="1" fill="none"></path></g></g><mask></mask><g transform="translate(213.88890656970807 129.11427917480472) rotate(0 4.6875 9.599999999999994)"><text x="0" y="15.45" font-family="Cascadia, Segoe UI Emoji" font-size="16px" fill="#1e1e1e" text-anchor="start" style="white-space: pre;" direction="ltr" dominant-baseline="alphabetic">2</text></g><g transform="translate(214.6775897798084 173.06665649414077) rotate(0 4.6875 9.599999999999994)"><text x="0" y="15.45" font-family="Cascadia, Segoe UI Emoji" font-size="16px" fill="#1e1e1e" text-anchor="start" style="white-space: pre;" direction="ltr" dominant-baseline="alphabetic">1</text></g></svg>